<svg width="42" height="50" viewBox="0 0 42 50" fill="none" xmlns="http://www.w3.org/2000/svg">
<path fill-rule="evenodd" clip-rule="evenodd" d="M41.0068 26.4026C40.5765 23.8963 39.5973 21.5861 38.512 19.4354C38.5089 19.4297 38.5063 19.4236 38.5032 19.4179C38.0561 18.5325 37.5911 17.6742 37.1395 16.8399C35.6662 14.1208 34.275 11.5524 34.1667 9.21551C33.9191 3.89975 36.2178 1.80129 36.3086 1.7208C36.6287 1.4595 36.742 1.03149 36.6035 0.642392C36.465 0.253676 36.0889 0 35.6762 0H6.4061C5.99297 0 5.61379 0.250625 5.47532 0.639341C5.33647 1.02844 5.44633 1.45301 5.76638 1.71432C5.86442 1.80091 8.16315 3.89975 7.91596 9.21513C7.80724 11.552 6.41602 14.1204 4.94317 16.8399C4.49113 17.6738 4.02612 18.5325 3.57904 19.4179C3.57599 19.4236 3.57332 19.4293 3.57027 19.435C2.41633 21.7219 1.38255 24.1889 1.0007 26.8805C0.996121 26.9076 0.992306 26.9351 0.990017 26.9626C0.854215 27.9551 0.80615 28.9782 0.875577 30.0345C0.993832 31.8389 1.30168 33.8797 1.79034 36.101C1.9063 36.6278 2.42701 36.9605 2.95382 36.8449C3.48062 36.7289 3.81365 36.2082 3.69768 35.6814C3.23038 33.5559 2.93665 31.613 2.8245 29.9067C2.80275 29.5771 2.79551 29.251 2.79856 28.9279L16.6832 39.5968C17.6159 40.3136 18.7996 40.7587 20.0646 40.8774V48.0471H7.61154C7.25335 47.1647 6.54648 45.3638 5.78698 43.0998C5.61532 42.5886 5.06143 42.3132 4.55064 42.4849C4.03909 42.6562 3.76367 43.2097 3.93533 43.7212C5.04579 47.0308 6.02006 49.3128 6.06088 49.4081C6.21499 49.7671 6.56785 50.0002 6.95847 50.0002H35.1238C35.5144 50.0002 35.8677 49.7671 36.0214 49.4081C36.2102 48.9679 40.6497 38.526 41.2067 30.0349C41.2879 28.7978 41.2094 27.6065 41.0156 26.456C41.0133 26.438 41.0102 26.4205 41.0068 26.4026ZM9.86678 9.3063C10.0316 5.76627 9.17099 3.38515 8.35655 1.9535H33.7257C32.9109 3.38515 32.0507 5.76627 32.2155 9.3063C32.3448 12.0895 33.8398 14.849 35.4217 17.7703C35.7513 18.3784 36.0824 18.9903 36.4051 19.6071C32.8552 22.2102 27.1908 23.7479 21.0411 23.7479C14.8915 23.7479 9.22706 22.2102 5.67712 19.6071C5.99984 18.9903 6.33096 18.3784 6.66016 17.7703C8.24287 14.849 9.73747 12.0895 9.86678 9.3063ZM3.01447 26.6307C3.33986 24.7977 4.00018 23.0594 4.79402 21.3752C8.68767 24.0993 14.6443 25.701 21.0411 25.701C27.4384 25.701 33.3946 24.0989 37.2882 21.3752C38.0157 22.9186 38.6306 24.5078 38.9789 26.1737L23.4097 38.1369C21.9403 39.266 19.405 39.2252 17.8734 38.0484L3.01447 26.6307ZM39.2578 29.9071C38.7962 36.9456 35.4152 45.7136 34.4707 48.0471H22.0177V40.7965C22.9874 40.6199 23.8758 40.2415 24.5995 39.6857L39.2688 28.414C39.2925 28.9042 39.291 29.4013 39.2578 29.9071Z" fill="#FF2625" fill-opacity="0.2"/>
</svg>
