<svg width="51" height="41" viewBox="0 0 51 41" fill="none" xmlns="http://www.w3.org/2000/svg">
<path d="M47.8594 12.2188H47.0312V8.90625C47.0314 8.50876 46.9361 8.11705 46.7534 7.76403C46.5707 7.41101 46.306 7.10699 45.9814 6.87752C45.6569 6.64806 45.282 6.49985 44.8882 6.44534C44.4945 6.39084 44.0934 6.43164 43.7188 6.56431V3.10938C43.718 2.45071 43.456 1.81925 42.9902 1.3535C42.5245 0.887759 41.893 0.625767 41.2344 0.625H39.5781C38.9195 0.625767 38.288 0.887759 37.8223 1.3535C37.3565 1.81925 37.0945 2.45071 37.0938 3.10938V12.2188H34.4669C34.3557 11.9037 34.1821 11.6143 33.9563 11.3679C33.7306 11.1216 33.4574 10.9233 33.1532 10.7851C32.849 10.6469 32.5201 10.5715 32.186 10.5635C31.852 10.5555 31.5198 10.615 31.2093 10.7385C31.1177 10.401 30.9559 10.0867 30.7344 9.81619C30.5129 9.54565 30.2367 9.32496 29.9239 9.16859C29.6112 9.01221 29.2689 8.92369 28.9196 8.90881C28.5703 8.89392 28.2217 8.95302 27.8968 9.08223C27.7859 8.67336 27.5721 8.29969 27.2759 7.99679C26.9797 7.69389 26.6109 7.47185 26.2046 7.35181C25.7984 7.23176 25.3681 7.2177 24.9548 7.31097C24.5416 7.40424 24.1591 7.60174 23.8438 7.88465C23.4867 7.5643 23.0444 7.35427 22.5705 7.27995C22.0965 7.20563 21.6112 7.27021 21.1732 7.46588C20.7352 7.66155 20.3633 7.97993 20.1024 8.38251C19.8415 8.7851 19.7028 9.25465 19.7031 9.73438V10.5625H18.875C18.3614 10.5632 17.8607 10.7227 17.4414 11.0192C17.0221 11.3158 16.7048 11.7348 16.5331 12.2188H13.9062V3.10938C13.9055 2.45071 13.6435 1.81925 13.1777 1.3535C12.712 0.887759 12.0805 0.625767 11.4219 0.625H9.76562C9.10696 0.625767 8.4755 0.887759 8.00975 1.3535C7.54401 1.81925 7.28202 2.45071 7.28125 3.10938V6.56431C6.90656 6.43164 6.50549 6.39084 6.11176 6.44534C5.71803 6.49985 5.34313 6.64806 5.01856 6.87752C4.694 7.10699 4.42926 7.41101 4.24658 7.76403C4.0639 8.11705 3.96862 8.50876 3.96875 8.90625V12.2188H3.14062C2.48195 12.2195 1.85047 12.4815 1.38472 12.9472C0.918973 13.413 0.65699 14.0445 0.65625 14.7031V16.3594C0.65699 17.018 0.918973 17.6495 1.38472 18.1153C1.85047 18.581 2.48195 18.843 3.14062 18.8438H3.96875V22.1562C3.96862 22.5537 4.0639 22.9455 4.24658 23.2985C4.42926 23.6515 4.694 23.9555 5.01856 24.185C5.34313 24.4144 5.71803 24.5627 6.11176 24.6172C6.50549 24.6717 6.90656 24.6309 7.28125 24.4982V27.9531C7.28202 28.6118 7.54401 29.2433 8.00975 29.709C8.4755 30.1747 9.10696 30.4367 9.76562 30.4375H11.4219C12.0805 30.4367 12.712 30.1747 13.1777 29.709C13.6435 29.2433 13.9055 28.6118 13.9062 27.9531V18.8438H16.3906V21.3281C16.3906 21.4916 16.439 21.6515 16.5297 21.7875L19.7031 26.5476V39.5469C19.7031 39.7665 19.7904 39.9771 19.9457 40.1325C20.101 40.2878 20.3116 40.375 20.5312 40.375H32.125C32.3446 40.375 32.5553 40.2878 32.7106 40.1325C32.8659 39.9771 32.9531 39.7665 32.9531 39.5469V26.4314L34.5668 21.5902C34.595 21.5057 34.6094 21.4172 34.6094 21.3281V18.8438H37.0938V27.9531C37.0945 28.6118 37.3565 29.2433 37.8223 29.709C38.288 30.1747 38.9195 30.4367 39.5781 30.4375H41.2344C41.893 30.4367 42.5245 30.1747 42.9902 29.709C43.456 29.2433 43.718 28.6118 43.7188 27.9531V24.4982C44.0934 24.6309 44.4945 24.6717 44.8882 24.6172C45.282 24.5627 45.6569 24.4144 45.9814 24.185C46.306 23.9555 46.5707 23.6515 46.7534 23.2985C46.9361 22.9455 47.0314 22.5537 47.0312 22.1562V18.8438H47.8594C48.518 18.843 49.1495 18.581 49.6153 18.1153C50.081 17.6495 50.343 17.018 50.3438 16.3594V14.7031C50.343 14.0445 50.081 13.413 49.6153 12.9472C49.1495 12.4815 48.518 12.2195 47.8594 12.2188ZM32.125 12.2188C32.3446 12.219 32.5551 12.3063 32.7103 12.4616C32.8656 12.6168 32.9529 12.8273 32.9531 13.0469V16.3594C32.9531 16.579 32.8659 16.7896 32.7106 16.9449C32.5553 17.1003 32.3446 17.1875 32.125 17.1875C31.9054 17.1875 31.6947 17.1003 31.5394 16.9449C31.3841 16.7896 31.2969 16.579 31.2969 16.3594V13.0469C31.2971 12.8273 31.3844 12.6168 31.5397 12.4616C31.6949 12.3063 31.9054 12.219 32.125 12.2188ZM28.8125 10.5625C29.0321 10.5627 29.2426 10.6501 29.3978 10.8053C29.5531 10.9606 29.6404 11.1711 29.6406 11.3906V16.3594C29.6406 16.579 29.5534 16.7896 29.3981 16.9449C29.2428 17.1003 29.0321 17.1875 28.8125 17.1875C28.5929 17.1875 28.3822 17.1003 28.2269 16.9449C28.0716 16.7896 27.9844 16.579 27.9844 16.3594V11.3906C27.9846 11.1711 28.0719 10.9606 28.2272 10.8053C28.3824 10.6501 28.5929 10.5627 28.8125 10.5625ZM25.5 8.90625C25.7196 8.9065 25.9301 8.99382 26.0853 9.14907C26.2406 9.30433 26.3279 9.51482 26.3281 9.73438V16.3594C26.3281 16.579 26.2409 16.7896 26.0856 16.9449C25.9303 17.1003 25.7196 17.1875 25.5 17.1875C25.2804 17.1875 25.0697 17.1003 24.9144 16.9449C24.7591 16.7896 24.6719 16.579 24.6719 16.3594V9.73438C24.6721 9.51482 24.7594 9.30433 24.9147 9.14907C25.07 8.99382 25.2804 8.9065 25.5 8.90625ZM23.0156 16.3594C23.0156 16.579 22.9284 16.7896 22.7731 16.9449C22.6178 17.1003 22.4071 17.1875 22.1875 17.1875C21.9679 17.1875 21.7572 17.1003 21.6019 16.9449C21.4466 16.7896 21.3594 16.579 21.3594 16.3594V15.5312H22.1875C22.4696 15.5314 22.7497 15.4832 23.0156 15.3888V16.3594ZM21.3594 9.73438C21.3594 9.51474 21.4466 9.3041 21.6019 9.1488C21.7572 8.9935 21.9679 8.90625 22.1875 8.90625C22.4071 8.90625 22.6178 8.9935 22.7731 9.1488C22.9284 9.3041 23.0156 9.51474 23.0156 9.73438V10.5625H21.3594V9.73438ZM3.14062 17.1875C2.92107 17.1873 2.71057 17.0999 2.55532 16.9447C2.40007 16.7894 2.31275 16.5789 2.3125 16.3594V14.7031C2.31275 14.4836 2.40007 14.2731 2.55532 14.1178C2.71057 13.9626 2.92107 13.8752 3.14062 13.875H3.96875V17.1875H3.14062ZM6.45312 22.9844C6.23357 22.9841 6.02308 22.8968 5.86783 22.7416C5.71257 22.5863 5.62525 22.3758 5.625 22.1562V8.90625C5.625 8.68662 5.71225 8.47598 5.86755 8.32068C6.02286 8.16537 6.23349 8.07812 6.45312 8.07812C6.67276 8.07812 6.88339 8.16537 7.0387 8.32068C7.194 8.47598 7.28125 8.68662 7.28125 8.90625V22.1562C7.281 22.3758 7.19368 22.5863 7.03842 22.7416C6.88317 22.8968 6.67268 22.9841 6.45312 22.9844ZM12.25 27.9531C12.2498 28.1727 12.1624 28.3832 12.0072 28.5384C11.8519 28.6937 11.6414 28.781 11.4219 28.7812H9.76562C9.54607 28.781 9.33558 28.6937 9.18032 28.5384C9.02507 28.3832 8.93775 28.1727 8.9375 27.9531V3.10938C8.93775 2.88982 9.02507 2.67932 9.18032 2.52407C9.33558 2.36882 9.54607 2.2815 9.76562 2.28125H11.4219C11.6414 2.2815 11.8519 2.36882 12.0072 2.52407C12.1624 2.67932 12.2498 2.88982 12.25 3.10938V27.9531ZM13.9062 17.1875V13.875H16.3906V17.1875H13.9062ZM32.9531 21.1936L31.3394 26.035C31.3113 26.1194 31.2969 26.2079 31.2969 26.2969V38.7188H21.3594V28.7812H23.8438C24.0634 28.7812 24.274 28.694 24.4293 28.5387C24.5846 28.3834 24.6719 28.1728 24.6719 27.9531C24.6719 27.7335 24.5846 27.5229 24.4293 27.3676C24.274 27.2122 24.0634 27.125 23.8438 27.125H21.3594V26.2969C21.3594 26.1334 21.311 25.9735 21.2203 25.8375L18.0469 21.0774V13.0469C18.0471 12.8273 18.1344 12.6168 18.2897 12.4616C18.445 12.3063 18.6554 12.219 18.875 12.2188H23.0156V13.0469C23.0154 13.2664 22.9281 13.4769 22.7728 13.6322C22.6175 13.7874 22.4071 13.8748 22.1875 13.875H20.5312C20.3116 13.875 20.101 13.9622 19.9457 14.1176C19.7904 14.2729 19.7031 14.4835 19.7031 14.7031V18.0156C19.7031 18.2353 19.7904 18.4459 19.9457 18.6012C20.101 18.7565 20.3116 18.8438 20.5312 18.8438C21.629 18.845 22.6815 19.2816 23.4578 20.0579C24.234 20.8341 24.6706 21.8866 24.6719 22.9844C24.6719 23.204 24.7591 23.4146 24.9144 23.5699C25.0697 23.7253 25.2804 23.8125 25.5 23.8125C25.7196 23.8125 25.9303 23.7253 26.0856 23.5699C26.2409 23.4146 26.3281 23.204 26.3281 22.9844C26.3284 22.2126 26.1742 21.4486 25.8744 20.7374C25.5746 20.0263 25.1354 19.3824 24.5826 18.8438H32.9531V21.1936ZM34.4669 17.1875C34.5613 16.9216 34.6095 16.6415 34.6094 16.3594V13.875H37.0938V17.1875H34.4669ZM42.0625 27.9531C42.0623 28.1727 41.9749 28.3832 41.8197 28.5384C41.6644 28.6937 41.4539 28.781 41.2344 28.7812H39.5781C39.3586 28.781 39.1481 28.6937 38.9928 28.5384C38.8376 28.3832 38.7502 28.1727 38.75 27.9531V3.10938C38.7502 2.88982 38.8376 2.67932 38.9928 2.52407C39.1481 2.36882 39.3586 2.2815 39.5781 2.28125H41.2344C41.4539 2.2815 41.6644 2.36882 41.8197 2.52407C41.9749 2.67932 42.0623 2.88982 42.0625 3.10938V27.9531ZM45.375 22.1562C45.375 22.3759 45.2878 22.5865 45.1325 22.7418C44.9771 22.8971 44.7665 22.9844 44.5469 22.9844C44.3272 22.9844 44.1166 22.8971 43.9613 22.7418C43.806 22.5865 43.7188 22.3759 43.7188 22.1562V8.90625C43.7188 8.68662 43.806 8.47598 43.9613 8.32068C44.1166 8.16537 44.3272 8.07812 44.5469 8.07812C44.7665 8.07812 44.9771 8.16537 45.1325 8.32068C45.2878 8.47598 45.375 8.68662 45.375 8.90625V22.1562ZM48.6875 16.3594C48.6873 16.5789 48.5999 16.7894 48.4447 16.9447C48.2894 17.0999 48.0789 17.1873 47.8594 17.1875H47.0312V13.875H47.8594C48.0789 13.8752 48.2894 13.9626 48.4447 14.1178C48.5999 14.2731 48.6873 14.4836 48.6875 14.7031V16.3594Z" fill="#FF2625" fill-opacity="0.2"/>
</svg>
