<svg width="23" height="14" viewBox="0 0 23 14" fill="none" xmlns="http://www.w3.org/2000/svg">
<path d="M13.9487 6.16291H7.64226V8.44986H11.4192C11.2806 9.42009 10.2757 11.3259 7.64226 11.3259C5.38996 11.3259 3.51881 9.45474 3.51881 7.09848C3.51881 4.77688 5.38996 2.90573 7.64226 2.90573C8.95899 2.90573 9.82526 3.46015 10.3104 3.94526L12.1122 2.21272C10.9341 1.10389 9.4441 0.445526 7.64226 0.445526C3.96927 0.445526 0.989304 3.4255 0.989304 7.09848C0.989304 10.8061 3.96927 13.7514 7.64226 13.7514C11.4885 13.7514 14.0527 11.0833 14.0527 7.27174C14.0527 6.82128 13.9834 6.50942 13.9487 6.16291ZM20.3591 6.37081V4.46502H18.4187V6.37081H16.4782V8.31126H18.4187V10.2517H20.3591V8.31126H22.2996V6.37081H20.3591Z" fill="#FF2625"/>
</svg>
