<svg width="17" height="17" viewBox="0 0 17 17" fill="none" xmlns="http://www.w3.org/2000/svg">
<path d="M4.40614 16.4291V6.06848H1.18361V16.4291H4.40614ZM2.77755 4.68244C3.81707 4.68244 4.64869 3.81617 4.64869 2.77665C4.64869 1.77177 3.81707 0.940155 2.77755 0.940155C1.77267 0.940155 0.941055 1.77177 0.941055 2.77665C0.941055 3.81617 1.77267 4.68244 2.77755 4.68244ZM16.43 16.4291H16.4646V10.7463C16.4646 7.97427 15.8409 5.82592 12.5837 5.82592C11.0244 5.82592 9.98492 6.69219 9.53446 7.48916H9.49981V6.06848H6.41588V16.4291H9.63841V11.3007C9.63841 9.94937 9.88096 8.66729 11.5442 8.66729C13.2074 8.66729 13.2421 10.1919 13.2421 11.4047V16.4291H16.43Z" fill="#FF2625"/>
</svg>
