<svg width="202" height="52" viewBox="0 0 202 52" fill="none" xmlns="http://www.w3.org/2000/svg">
<path d="M74.964 22.652C77.204 22.652 78.744 24.584 78.94 28.196H79.332L80.116 22.344H79.752C79.5 22.708 79.388 22.932 78.968 22.932C78.464 22.932 76.532 22.092 74.32 22.092C66.508 22.092 63.092 29.176 63.092 34.468C63.092 39.704 65.612 42.28 71.072 42.28C73.844 42.28 76.504 41.608 78.156 40.964L79.388 34.076H80.816L80.956 33.46H72.332L72.22 34.076H74.348L73.116 41.608C72.892 41.608 72.556 41.608 72.248 41.608C69.896 41.608 68.608 39.844 68.608 35.7C68.608 31.444 69.756 22.652 74.964 22.652ZM90.4646 35.056C89.5966 40.236 89.1766 41.776 87.6086 41.776C86.6846 41.776 86.3486 41.188 86.3486 39.9C86.3486 38.92 86.4886 37.324 86.7966 35.532C87.5526 31.052 88.0286 28.896 89.7646 28.896C90.5766 28.896 90.9126 29.596 90.9126 30.856C90.9126 31.92 90.7446 33.32 90.4646 35.056ZM87.4406 42.28C92.3126 42.28 95.6446 39.312 95.6446 33.432C95.6446 29.904 93.6286 28.392 89.9046 28.392C84.5286 28.392 81.6726 32.004 81.6726 37.016C81.6726 40.488 83.5766 42.28 87.4406 42.28ZM105.248 39.508C104.38 40.768 103.764 41.132 103.316 41.132C102.784 41.132 102.616 40.852 102.616 40.348C102.616 39.872 102.784 39.144 102.924 38.416L106.172 21H99.0038L98.9198 21.504H100.908L98.6678 32.788C97.8558 36.82 97.7438 37.716 97.7438 38.752C97.7438 41.16 99.0318 42.28 101.608 42.28C103.456 42.28 104.408 41.664 105.696 39.844L105.248 39.508ZM123.686 21H116.574L116.49 21.504H118.31L116.938 30.548C116.462 29.288 115.706 28.392 113.718 28.392C109.182 28.392 106.83 32.256 106.83 37.408C106.83 40.404 108.09 42.28 111.338 42.28C113.774 42.28 115.202 40.768 115.958 38.584L116.098 38.612C115.65 40.88 116.686 42.28 119.458 42.28C120.998 42.28 122.258 41.552 123.266 39.9L122.846 39.648C122.034 40.908 121.418 41.188 120.998 41.188C120.606 41.188 120.27 41.02 120.27 40.292C120.27 40.04 120.326 39.648 120.382 39.284C120.746 37.156 121.194 34.832 121.67 32.172L123.686 21ZM113.046 41.188C111.954 41.188 111.842 40.096 111.842 39.144C111.842 37.128 112.346 34.048 112.962 31.892C113.522 29.932 114.11 29.148 114.95 29.148C115.734 29.148 116.518 29.792 116.518 31.472C116.518 33.712 116.154 36.036 115.538 37.996C114.866 40.208 113.914 41.188 113.046 41.188ZM128.814 41.664C127.246 41.664 126.574 41.048 126.574 40.32C126.574 40.152 126.602 39.984 126.686 39.788H127.806C127.974 39.396 128.058 39.004 128.058 38.64C128.058 37.66 127.414 36.904 126.21 36.904C124.81 36.904 123.802 37.688 123.802 39.228C123.802 41.3 125.902 42.28 129.038 42.28C133.21 42.28 136.374 40.572 136.374 37.156C136.374 34.804 134.302 34.076 132.426 33.348C130.578 32.62 129.598 32.228 129.598 30.856C129.598 29.876 130.466 28.98 132.566 28.98C133.826 28.98 134.442 29.316 134.442 29.96C134.442 30.156 134.386 30.38 134.274 30.632H133.378C133.07 31.024 132.958 31.472 132.958 31.948C132.958 32.788 133.882 33.292 134.862 33.292C136.318 33.292 137.186 32.452 137.186 31.192C137.186 28.756 134.442 28.392 132.174 28.392C128.31 28.392 125.342 29.932 125.342 33.012C125.342 35.336 127.078 36.26 128.674 36.848C130.55 37.548 131.81 37.912 131.81 39.452C131.81 40.376 131.25 41.664 128.814 41.664ZM155.519 22.652C157.759 22.652 159.299 24.584 159.495 28.196H159.887L160.671 22.344H160.307C160.055 22.708 159.943 22.932 159.523 22.932C159.019 22.932 157.087 22.092 154.875 22.092C147.063 22.092 143.647 29.176 143.647 34.468C143.647 39.704 146.167 42.28 151.627 42.28C154.399 42.28 157.059 41.608 158.711 40.964L159.943 34.076H161.371L161.511 33.46H152.887L152.775 34.076H154.903L153.671 41.608C153.447 41.608 153.111 41.608 152.803 41.608C150.451 41.608 149.163 39.844 149.163 35.7C149.163 31.444 150.311 22.652 155.519 22.652ZM162.999 46.144C163.531 43.988 162.243 43.036 160.955 43.036C159.499 43.036 158.239 44.072 158.239 45.836C158.239 47.712 159.639 49 161.739 49C165.855 49 168.375 45.052 171.511 40.88C173.499 38.22 176.103 34.272 176.103 31.584C176.103 29.568 175.095 28.392 173.331 28.392C171.707 28.392 170.811 29.624 170.811 30.856C170.811 31.92 171.455 32.984 172.883 33.348L173.723 32.172C174.339 32.228 174.731 32.536 174.731 33.348C174.731 34.524 173.975 36.176 171.595 39.676C170.811 36.82 170.195 34.16 169.327 31.304C168.711 29.26 167.703 28.392 165.799 28.392C162.831 28.392 161.851 30.52 161.151 32.2L161.711 32.424C162.439 30.8 162.691 30.324 163.251 30.324C163.783 30.324 163.979 30.912 164.315 32.116C165.127 34.888 166.779 40.628 167.843 44.548C165.799 47.068 163.923 48.272 162.467 48.272C161.067 48.272 161.039 46.984 161.571 46.34L162.999 46.144ZM184.832 42.196C185.532 42.028 189.34 41.888 190.152 41.916C190.6 37.856 191.244 34.636 192.448 32.312C193.288 30.688 194.1 29.82 194.716 29.82C195.724 29.82 195.248 31.024 194.772 32.34C194.548 32.9 193.12 37.156 193.12 39.004C193.12 41.384 194.66 42.28 196.788 42.28C198.832 42.28 199.868 41.468 200.932 39.788L200.456 39.508C199.756 40.684 199.112 41.132 198.692 41.132C198.3 41.132 197.964 41.02 197.964 40.46C197.964 40.152 198.132 39.396 198.3 38.696L199.616 33.432C199.784 32.732 199.924 31.92 199.924 31.024C199.896 29.456 198.888 28.392 197.012 28.392C193.708 28.392 192.364 31.08 191.58 32.788L191.468 32.76C191.72 32.004 191.888 31.304 191.888 30.688C191.888 29.316 191.16 28.392 189.34 28.392C186.12 28.392 184.804 30.576 183.544 33.348L183.46 33.32L184.552 28.672H177.468L177.412 29.176H179.344L178.196 36.988L177.02 42.196C177.804 42.028 181.724 41.888 182.592 41.916C182.9 37.38 183.46 34.86 184.468 32.732C185.532 30.492 186.456 29.82 187.072 29.82C187.856 29.82 187.8 30.52 187.324 32.34C186.428 35.84 185.56 38.864 184.832 42.196Z" fill="#3A1212"/>
<g clip-path="url(#clip0)">
<path d="M38.1859 15.7236C38.3419 15.8796 38.5459 15.9573 38.7499 15.9573C38.9538 15.9573 39.1582 15.8793 39.3142 15.7236L44.8725 10.1653C46.4648 8.57263 46.4648 5.98096 44.8725 4.38831C43.2799 2.79529 40.6878 2.79602 39.0956 4.38831L38.7499 4.73328L38.4049 4.38831C36.8115 2.79565 34.2206 2.79565 32.6279 4.38831C31.8563 5.15991 31.4311 6.18567 31.4311 7.27661C31.4311 8.36755 31.8563 9.39368 32.6279 10.1649L38.1859 15.7236ZM33.7562 5.5166C34.2418 5.03101 34.879 4.78894 35.5162 4.78894C36.1534 4.78894 36.7914 5.03137 37.2766 5.5166L38.1859 6.42627C38.3357 6.57568 38.5385 6.65991 38.7499 6.65991C38.9615 6.65991 39.1644 6.57568 39.3142 6.42627L40.2239 5.5166C41.195 4.54504 42.7738 4.54614 43.7442 5.5166C44.7147 6.48706 44.7147 8.06653 43.7442 9.03699L38.7499 14.031L33.7562 9.03699C33.286 8.56677 33.0267 7.94128 33.0267 7.27698C33.0271 6.61194 33.286 5.98645 33.7562 5.5166Z" fill="#FF2625"/>
<path d="M46.2329 46.2797C39.4129 47.0363 34.0044 44.0165 33.9502 43.9861C33.7667 43.8814 33.5492 43.8532 33.3452 43.9092C33.2591 43.9323 24.6806 46.2317 17.7713 44.698C13.464 43.7404 9.40121 40.7063 6.43454 38.4911C6.0361 38.1937 5.65854 37.9114 5.30405 37.6525C4.81992 37.2984 4.05014 37.0039 3.37155 36.7439C3.06686 36.6275 2.64938 36.4674 2.55966 36.4114C2.48203 36.3506 2.43954 36.2613 2.43954 36.1591V34.3097C2.478 32.8463 8.61349 10.3291 9.56491 7.46462C9.58835 7.43093 9.6799 7.36465 9.74728 7.33279L21.8894 1.78689L25.8148 6.89736C26.0085 7.16213 25.9902 7.53237 25.7719 7.77663L21.893 12.125C21.6392 12.4099 21.2119 12.4411 20.9467 12.2195L19.3783 10.7733C19.1944 10.6041 18.933 10.5481 18.688 10.5932C18.4422 10.6371 18.2225 10.8122 18.109 11.0348C17.9779 11.293 16.7903 11.6094 15.5788 11.6186L15.1841 11.5786C14.8676 11.5409 14.5608 11.7061 14.4062 11.9848C14.2509 12.2635 14.2773 12.6077 14.4721 12.8604C14.8091 13.2958 15.0716 13.6455 15.2203 13.8462L15.9967 27.0434C15.5155 28.9176 15.0746 29.4501 14.9651 29.5567C14.6417 29.6588 14.407 29.961 14.407 30.3176C14.407 30.7582 14.7644 31.1156 15.2049 31.1156C16.1098 31.1156 16.8789 29.9265 17.4963 27.6051C23.8424 22.8568 29.3806 27.3382 29.8149 27.7069C31.8305 29.7299 31.9554 31.0735 31.9594 31.1332C31.969 31.5653 32.3224 31.9132 32.7574 31.9132C33.198 31.9132 33.5554 31.5562 33.5554 31.1156C33.5554 30.9322 33.4887 29.3578 31.4237 27.0833C33.3712 24.689 35.5886 23.3098 38.0308 23.0095C42.2415 22.491 45.781 25.3225 45.8165 25.3507C46.1585 25.6291 46.6602 25.5778 46.9386 25.2365C47.2169 24.8955 47.1667 24.3938 46.8261 24.1151C46.6613 23.9807 42.7433 20.8288 37.8521 21.4239C34.9931 21.7707 32.4267 23.3168 30.2144 26.0231C28.4189 24.8021 23.2707 22.0387 17.5132 25.6529L16.799 13.5163C16.7917 13.3852 16.7514 13.2581 16.683 13.1464C17.3971 13.0618 18.2474 12.8754 18.8641 12.4696L19.8921 13.417C20.849 14.2201 22.2505 14.1201 23.0832 13.1878L26.9621 8.83901C27.6777 8.03738 27.7374 6.82522 27.0918 5.94119L22.7675 0.311425C22.542 0.0173572 22.1428 -0.0826184 21.8033 0.0719226L9.09396 5.8771C8.96103 5.93533 8.28683 6.26162 8.06528 6.92812C7.61337 8.28457 0.843964 32.4263 0.843964 34.3072V36.1594C0.843964 36.7538 1.11093 37.3035 1.57565 37.6679C1.8082 37.8499 2.15573 37.9876 2.80136 38.2344C3.3287 38.4365 4.05051 38.7123 4.36215 38.9405C4.71298 39.1968 5.08578 39.4755 5.47983 39.7699C8.56222 42.0719 12.7835 45.2243 17.4256 46.2559C24.0339 47.7244 31.7913 45.949 33.4539 45.5301C34.5643 46.1039 38.638 47.9998 43.9712 47.9998C44.7581 47.9998 45.573 47.9588 46.409 47.8654C46.847 47.817 47.1623 47.4223 47.114 46.9846C47.0649 46.5459 46.669 46.2281 46.2329 46.2797Z" fill="#3A1212"/>
<path d="M42.3249 36.6119C42.2809 36.2127 41.9429 35.9022 41.5316 35.9022C41.0911 35.9022 40.7337 36.2596 40.7337 36.7002C40.7337 37.233 41.1274 39.0373 46.1877 39.8803C46.232 39.8877 46.2763 39.8913 46.3195 39.8913C46.7026 39.8913 47.0406 39.6148 47.1058 39.2248C47.1779 38.7901 46.8842 38.3792 46.4499 38.3064C42.9112 37.7168 42.3721 36.7181 42.3249 36.6119Z" fill="#FF2625"/>
<path d="M27.006 40.7074C16.5562 42.9457 12.0844 35.7958 11.8995 35.4907C11.6713 35.1139 11.1824 34.9927 10.8056 35.219C10.4277 35.4457 10.3054 35.9357 10.532 36.3136C10.5848 36.4012 11.8544 38.4853 14.5691 40.2607C16.4398 41.4834 19.2922 42.7293 23.1502 42.7293C24.4352 42.7293 25.8316 42.5912 27.34 42.2682C27.7711 42.1759 28.0457 41.7515 27.9534 41.3208C27.8608 40.8902 27.4371 40.6144 27.006 40.7074Z" fill="#FF2625"/>
</g>
<defs>
<clipPath id="clip0">
<rect width="48" height="48" fill="white"/>
</clipPath>
</defs>
</svg>
