<svg width="51" height="43" viewBox="0 0 51 43" fill="none" xmlns="http://www.w3.org/2000/svg">
<path d="M0.698758 39.1525L1.52688 41.6369C1.58185 41.8018 1.6873 41.9452 1.8283 42.0468C1.9693 42.1484 2.1387 42.2031 2.3125 42.2031H4.79688C4.97068 42.2031 5.14008 42.1484 5.28108 42.0468C5.42208 41.9452 5.52753 41.8018 5.58249 41.6369L6.22188 39.7187H7.51249L8.15188 41.6369C8.20685 41.8018 8.3123 41.9452 8.4533 42.0468C8.5943 42.1484 8.7637 42.2031 8.9375 42.2031H11.4219C11.5957 42.2031 11.7651 42.1484 11.9061 42.0468C12.0471 41.9452 12.1525 41.8018 12.2075 41.6369L13.0356 39.1525L13.0352 39.1524C13.0635 39.068 13.078 38.9796 13.0781 38.8906V35.5781C13.0781 35.3585 12.9909 35.1479 12.8356 34.9926C12.6803 34.8372 12.4696 34.75 12.25 34.75H9.76562V32.2656H13.0781C13.2978 32.2656 13.5084 32.1784 13.6637 32.0231C13.819 31.8678 13.9062 31.6571 13.9062 31.4375V27.2969C13.9062 27.0772 13.819 26.8666 13.6637 26.7113C13.5084 26.556 13.2978 26.4688 13.0781 26.4687H10.5938V25.6406C10.5937 25.421 10.5065 25.2103 10.3512 25.055L8.97243 23.6763L9.68693 16.5312H12.5663L17.3056 26.0098C17.9196 27.2433 18.905 28.2533 20.1229 28.8975L44.9865 42.1063C45.178 42.2082 45.4019 42.2308 45.61 42.1692C45.8181 42.1077 45.9936 41.9669 46.0989 41.7771L50.2395 34.324C50.2938 34.2263 50.3278 34.1186 50.3393 34.0074C50.3509 33.8963 50.3398 33.7839 50.3067 33.6771C50.2737 33.5703 50.2194 33.4713 50.1471 33.3861C50.0748 33.3009 49.9859 33.2312 49.886 33.1812L48.2297 32.3531C48.1051 32.2907 47.9668 32.2609 47.8276 32.2662C47.6884 32.2715 47.5528 32.3119 47.4333 32.3836L43.7776 34.577L26.1983 20.993L22.4141 10.3973C22.8084 9.75052 23.0166 9.00748 23.0156 8.25V4.10938C23.0156 3.49421 22.8443 2.8912 22.5209 2.36791C22.1975 1.84462 21.7348 1.42172 21.1845 1.14661C20.6343 0.871491 20.0184 0.755023 19.4057 0.810255C18.793 0.865486 18.2078 1.09023 17.7157 1.45932L15.0656 3.44684C14.9628 3.52399 14.8793 3.62402 14.8218 3.73901C14.7643 3.85401 14.7344 3.98081 14.7344 4.10938V8.25C14.734 8.82014 14.8521 9.38414 15.0812 9.90625H9.76562C8.00917 9.90823 6.32523 10.6069 5.08323 11.8489C3.84123 13.0909 3.14261 14.7748 3.14062 16.5312V25.6406C3.14063 25.8603 3.22788 26.0709 3.38319 26.2262L3.6257 26.4687H1.48438C1.26474 26.4688 1.05411 26.556 0.898805 26.7113C0.743501 26.8666 0.656252 27.0772 0.65625 27.2969V31.4375C0.656252 31.6571 0.743501 31.8678 0.898805 32.0231C1.05411 32.1784 1.26474 32.2656 1.48438 32.2656H4.79688V34.75H1.48438C1.26474 34.75 1.05411 34.8372 0.898805 34.9926C0.743501 35.1479 0.656252 35.3585 0.65625 35.5781V38.8906C0.656352 38.9796 0.670844 39.068 0.699162 39.1524L0.698758 39.1525ZM4.19999 40.5469H2.90938L2.63334 39.7187H4.47604L4.19999 40.5469ZM9.53438 40.5469L9.25834 39.7187H11.101L10.825 40.5469H9.53438ZM12.25 14.875V11.5625H16.3906V11.5602C17.0682 12.0703 17.8864 12.3594 18.734 12.3882C19.5816 12.417 20.4176 12.1841 21.1282 11.7212L23.8378 19.3082L17.2668 22.2287L14.4181 16.5312H18.0469V14.875H12.25ZM21.3594 8.25C21.3594 8.9089 21.0976 9.54081 20.6317 10.0067C20.1658 10.4726 19.5339 10.7344 18.875 10.7344C18.2161 10.7344 17.5842 10.4726 17.1183 10.0067C16.6524 9.54081 16.3906 8.9089 16.3906 8.25V7.42188H17.2188C17.4384 7.42188 17.649 7.33465 17.8043 7.17936L19.2181 5.76563H21.3594V8.25ZM42.3382 38.824L27.5863 30.987L30.4641 26.3825L42.8205 35.9305L42.3382 38.824ZM47.8956 34.0377L48.3717 34.2758L45.0458 40.2624L43.8807 39.6435L44.4727 36.0915L47.8956 34.0377ZM29.147 25.3647L26.1199 30.208L20.9 27.435C19.9865 26.9517 19.2475 26.1942 18.787 25.269L18.0082 23.7116L24.3965 20.8724L24.7201 21.7785C24.7734 21.9277 24.8683 22.0584 24.9936 22.1553L29.147 25.3647ZM18.7093 2.7844C18.9554 2.59984 19.248 2.48745 19.5543 2.45982C19.8607 2.43219 20.1687 2.49042 20.4438 2.62797C20.7189 2.76553 20.9503 2.97698 21.112 3.23862C21.2737 3.50027 21.3594 3.80179 21.3594 4.10938H18.875C18.6554 4.10937 18.4447 4.19661 18.2894 4.35189L16.8757 5.76563H16.3906V4.52344L18.7093 2.7844ZM4.79688 25.2976V16.5312C4.79835 15.2139 5.32232 13.9509 6.25382 13.0194C7.18532 12.0879 8.44828 11.564 9.76562 11.5625H10.5938V14.875H8.9375C8.73213 14.875 8.53409 14.9513 8.38182 15.0891C8.22955 15.2269 8.13391 15.4164 8.11347 15.6207L7.28534 23.902C7.27315 24.024 7.28821 24.1473 7.32945 24.2628C7.37069 24.3783 7.43708 24.4832 7.52381 24.57L8.9375 25.9836V26.4687H5.96805L4.79688 25.2976ZM2.3125 28.125H12.25V30.6094H2.3125V28.125ZM6.45312 32.2656H8.10938V34.75H6.45312V32.2656ZM2.3125 36.4062H11.4219V38.0625H2.3125V36.4062Z" fill="#FF2625" fill-opacity="0.2"/>
</svg>
