<svg width="36" height="58" viewBox="0 0 36 58" fill="none" xmlns="http://www.w3.org/2000/svg">
<path d="M35.7722 49.3533C35.7353 49.2313 35.6738 49.1181 35.5916 49.0206C35.5094 48.9232 35.4082 48.8435 35.2942 48.7865L31.9299 47.1043L31.3839 44.9204C30.9879 43.3457 30.2433 41.88 29.205 40.6316C28.1667 39.3832 26.8613 38.384 25.385 37.7077L25.3665 37.6148C24.8247 34.9064 23.9373 32.2789 22.726 29.7966C22.9408 28.355 22.6785 26.8827 21.9792 25.6039C21.28 24.325 20.1819 23.3098 18.8523 22.7126L18.5256 20.4252L22.4128 16.5379C22.5091 16.4417 22.5833 16.3256 22.6301 16.1977C22.677 16.0699 22.6955 15.9334 22.6842 15.7977C22.673 15.662 22.6324 15.5304 22.5651 15.412C22.4979 15.2936 22.4057 15.1913 22.2949 15.1121L16.8738 11.24C16.6666 10.6903 16.3016 10.2141 15.8248 9.87115L15.4662 8.43713C15.4701 8.43973 15.4738 8.44265 15.4777 8.44525L15.7833 8.64896C16.386 9.05169 17.0622 9.33175 17.7731 9.47316L21.5661 10.2318C21.7634 10.2712 21.9682 10.2462 22.1501 10.1603C22.3321 10.0744 22.4816 9.93221 22.5765 9.75481C22.6714 9.5774 22.7068 9.37416 22.6773 9.17512C22.6478 8.97608 22.5551 8.79181 22.4129 8.64952L21.4137 7.65046C20.3611 6.59977 19.6441 5.26015 19.3538 3.80147C19.2549 3.30535 19.0341 2.84164 18.7113 2.45214C18.3884 2.06265 17.9738 1.75961 17.5046 1.57035C17.0355 1.38109 16.5266 1.31155 16.0239 1.36801C15.5212 1.42447 15.0404 1.60515 14.6249 1.89376C13.9294 1.23845 13.0096 0.873963 12.054 0.874987H11.4374C10.4714 0.876147 9.54293 1.24962 8.84516 1.91775C8.14739 2.58589 7.734 3.49726 7.69093 4.46237L6.79807 7.14097C6.75109 7.2819 6.73827 7.43197 6.76067 7.57883C6.78307 7.72568 6.84004 7.86511 6.9269 7.98562C7.01376 8.10614 7.12801 8.20429 7.26024 8.27198C7.39247 8.33968 7.53889 8.37498 7.68744 8.37499H8.04553L8.72394 9.7318C8.8018 9.88751 8.92149 10.0185 9.06959 10.11C9.21769 10.2015 9.38835 10.25 9.56244 10.25H10.5518C10.2083 10.5253 9.90925 10.8519 9.66521 11.2183L8.38325 13.1412C8.02686 13.6772 7.81409 14.2957 7.76534 14.9375H6.74994C6.74995 14.7284 6.68007 14.5253 6.5514 14.3606C6.42273 14.1958 6.24267 14.0787 6.03984 14.028L2.28984 13.0905C2.1704 13.0606 2.04625 13.0546 1.92447 13.0727C1.8027 13.0908 1.68568 13.1327 1.58011 13.1961C1.47453 13.2594 1.38247 13.3429 1.30917 13.4418C1.23588 13.5408 1.18278 13.6532 1.15293 13.7726L0.215425 17.5226C0.158148 17.7517 0.189471 17.9941 0.30313 18.2011C0.416789 18.4082 0.60441 18.5647 0.828484 18.6394L3.64099 19.5769C3.73659 19.6087 3.83669 19.625 3.93744 19.625H4.74362L11.028 21.4205L11.4374 23.4679V25.7484L10.3492 26.6552C7.48759 29.038 5.04817 31.8862 3.13355 35.0801C3.04398 35.2294 2.99775 35.4007 3.00003 35.5748C3.00231 35.7489 3.05303 35.9189 3.14649 36.0658L9.38115 45.8632L7.13275 49.2358C6.68876 49.9035 6.42874 50.6766 6.37891 51.4769C6.32908 52.2773 6.49121 53.0766 6.84894 53.7943C6.90553 53.9075 6.98446 54.008 7.08095 54.0899C7.17745 54.1717 7.28951 54.2332 7.4104 54.2706C7.53129 54.308 7.6585 54.3205 7.78436 54.3075C7.91022 54.2944 8.03213 54.256 8.14275 54.1945L16.5802 49.507C16.7071 49.4365 16.8159 49.3376 16.898 49.2179C16.9801 49.0983 17.0333 48.9612 17.0534 48.8175C17.0735 48.6738 17.06 48.5274 17.0139 48.3898C16.9679 48.2522 16.8905 48.1271 16.7878 48.0245L13.2588 44.4955L12.3655 38.2423C12.3368 38.0415 12.2438 37.8555 12.1003 37.712L10.2076 35.8193L15.4466 33.1998L19.987 41.632C20.039 41.7286 20.1076 41.8153 20.1896 41.8882L28.2252 49.0309L27.4813 52.7505C26.877 53.0975 26.3754 53.5983 26.0274 54.202C25.6795 54.8057 25.4975 55.4907 25.4999 56.1875C25.4999 56.4361 25.5987 56.6746 25.7745 56.8504C25.9503 57.0262 26.1888 57.125 26.4374 57.125H31.1249C31.2902 57.125 31.4526 57.0813 31.5955 56.9983C31.7385 56.9154 31.8569 56.7961 31.9389 56.6526L35.6889 50.0901C35.7522 49.9794 35.7922 49.857 35.8065 49.7303C35.8208 49.6036 35.8092 49.4753 35.7722 49.3533ZM13.1435 22.4375L12.956 21.5H14.2499C14.459 21.5 14.6621 21.4301 14.8269 21.3014C14.9917 21.1728 15.1088 20.9927 15.1595 20.7899L16.1294 16.9102L16.919 22.4375L13.1435 22.4375ZM18.1941 18.105L17.6186 14.0761L20.3045 15.9946L18.1941 18.105ZM16.9912 3.40642C17.126 3.49103 17.2421 3.60236 17.3322 3.73354C17.4223 3.86473 17.4846 4.01298 17.5152 4.16917C17.7779 5.48918 18.3218 6.73716 19.1097 7.82831L18.1408 7.63456C17.6701 7.54096 17.2224 7.35551 16.8233 7.08879L16.5176 6.88509C16.216 6.68339 15.9535 6.42867 15.7427 6.13329C15.907 5.3337 15.8897 4.50742 15.6921 3.71542C15.6726 3.63757 15.6501 3.56118 15.626 3.48559C15.8165 3.33093 16.0508 3.24008 16.2958 3.22587C16.5408 3.21167 16.7841 3.27483 16.9912 3.40642V3.40642ZM12.054 2.74999C12.4723 2.7495 12.8787 2.88909 13.2084 3.1465C13.538 3.4039 13.772 3.7643 13.873 4.1702C14.0213 4.76493 14.0143 5.38779 13.8526 5.97902C12.758 5.08425 11.8327 4.00034 11.1208 2.77883C11.2254 2.76027 11.3313 2.75062 11.4374 2.74999H12.054ZM12.3567 9.12869C12.3143 8.91616 12.1994 8.72491 12.0318 8.5875C11.8642 8.45008 11.6542 8.37498 11.4374 8.37499H10.1419L9.46345 7.01818C9.35972 6.81066 9.18271 6.64898 8.96666 6.56442L9.51432 4.9215C9.54618 4.82589 9.56243 4.72577 9.56244 4.62499C9.56288 4.41326 9.59941 4.20316 9.67048 4.00372C10.6392 5.57824 11.9168 6.94028 13.4261 8.00775L13.7576 9.33354C13.7381 9.33575 13.7188 9.33884 13.6994 9.34141C13.2694 9.29018 12.834 9.30702 12.4093 9.39133L12.3567 9.12869ZM9.9433 14.1813L11.0447 12.5292L10.6433 14.9375H9.65018C9.69126 14.667 9.79133 14.4088 9.9433 14.1813ZM4.87494 17.75H4.08959L2.24504 17.1351L2.74457 15.1368L4.87494 15.6695V15.875C4.87495 16.1236 4.97372 16.3621 5.14953 16.5379C5.32535 16.7137 5.5638 16.8125 5.81244 16.8125H11.0491L11.712 17.4754L13.0378 16.1495L12.4415 15.5532L13.017 12.1006C13.062 11.8301 13.2071 11.5865 13.4235 11.418C13.6398 11.2496 13.9116 11.1686 14.1849 11.1912C14.4581 11.2138 14.7129 11.3383 14.8986 11.5401C15.0844 11.7418 15.1874 12.006 15.1874 12.2802V12.8126C15.1874 12.9019 15.1765 12.9909 15.1548 13.0776L13.518 19.625H11.5688L5.13249 17.786C5.04873 17.7621 4.96205 17.75 4.87494 17.75ZM8.2541 51.9877C8.20249 51.3839 8.35715 50.7804 8.69281 50.2758L11.1419 46.6021L12.1898 46.0782L14.5832 48.4715L8.2541 51.9877ZM15.0754 28.5555L13.4245 29.4445L14.5573 31.5482L8.2057 34.724C8.07283 34.7904 7.95766 34.8875 7.86967 35.0072C7.78167 35.1268 7.72338 35.2657 7.69958 35.4123C7.67579 35.559 7.68718 35.7092 7.73281 35.8505C7.77845 35.9919 7.85702 36.1204 7.96205 36.2254L10.5536 38.817L11.3513 44.4011L10.8369 44.6584L5.0426 35.553C6.80169 32.7373 8.99823 30.2199 11.5496 28.0956L12.9751 26.9077C13.0807 26.8197 13.1656 26.7096 13.2239 26.5851C13.2822 26.4607 13.3124 26.3249 13.3124 26.1875V24.3125H17.8193L17.9008 24.3451C18.944 24.7625 19.8082 25.5318 20.3433 26.5198C20.8785 27.5077 21.0509 28.6518 20.8306 29.7536C20.7898 29.958 20.8182 30.1703 20.9114 30.3568C22.1185 32.7711 22.9984 35.3356 23.5279 37.9825L23.6431 38.5588C23.6737 38.7117 23.742 38.8546 23.8417 38.9745C23.9414 39.0944 24.0695 39.1875 24.2143 39.2454C25.5266 39.7724 26.6956 40.6025 27.6255 41.6679C28.5555 42.7333 29.2201 44.0037 29.5649 45.3752L30.0331 47.2478L29.3984 47.5651L21.5592 40.597L15.0754 28.5555ZM30.5809 55.25H27.5941C27.797 54.8436 28.127 54.5144 28.5339 54.3125L28.7318 54.2135C28.8595 54.1496 28.9709 54.0575 29.0575 53.944C29.1441 53.8306 29.2037 53.6989 29.2318 53.5589L30.0793 49.3209L31.125 48.7981L33.5693 50.0203L30.5809 55.25Z" fill="#FF2625" fill-opacity="0.2"/>
</svg>
