<svg width="35" height="53" viewBox="0 0 35 53" fill="none" xmlns="http://www.w3.org/2000/svg">
<path d="M25.5297 0C24.0803 0 22.7175 0.564574 21.6923 1.58979L17.5 5.78207L13.3077 1.58979C12.2825 0.564574 10.9197 0 9.47029 0C6.47766 0 4.04297 2.43469 4.04297 5.42732V28.8622L2.43558 28.0585C2.11489 27.8981 1.73374 27.9152 1.42847 28.1039C1.12321 28.2926 0.9375 28.6256 0.9375 28.9844V51.9648C0.9375 52.5365 1.40104 53 1.97266 53H8.18359C8.75521 53 9.21875 52.5365 9.21875 51.9648V32.0898C9.21875 31.6977 8.99723 31.3394 8.64652 31.164L6.11328 29.8974V5.42732C6.11328 3.57626 7.61923 2.07031 9.47029 2.07031C10.3666 2.07031 11.2097 2.41957 11.8438 3.05381L16.036 7.24609L12.3759 10.9062C11.0075 12.2747 10.2539 14.0941 10.2539 16.0294V16.5625C10.2539 20.558 13.5045 23.8086 17.5 23.8086C21.4955 23.8086 24.7461 20.558 24.7461 16.5625V16.0294C24.7461 14.0942 23.9925 12.2748 22.6241 10.9063L18.964 7.24609L23.1563 3.05381C23.7904 2.41957 24.6334 2.07031 25.5297 2.07031C27.3808 2.07031 28.8867 3.57626 28.8867 5.42732V29.8974L26.3535 31.164C26.0028 31.3394 25.7812 31.6977 25.7812 32.0898V51.9648C25.7812 52.5365 26.2448 53 26.8164 53H33.0273C33.599 53 34.0625 52.5365 34.0625 51.9648V45.133C34.0625 44.5614 33.599 44.0979 33.0273 44.0979C32.4557 44.0979 31.9922 44.5614 31.9922 45.133V50.9297H27.8516V32.7297L31.9922 30.6594V35.8164C31.9922 36.388 32.4557 36.8516 33.0273 36.8516C33.599 36.8516 34.0625 36.388 34.0625 35.8164V28.9844C34.0625 28.6256 33.8767 28.2924 33.5715 28.1038C33.2665 27.9152 32.8852 27.8983 32.5644 28.0584L30.957 28.8622V5.42732C30.957 2.43469 28.5223 0 25.5297 0V0ZM7.14844 50.9297H3.00781V30.6594L7.14844 32.7297V50.9297ZM22.6758 16.0294V16.5625C22.6758 19.4164 20.3539 21.7383 17.5 21.7383C14.6461 21.7383 12.3242 19.4164 12.3242 16.5625V16.0294C12.3242 14.647 12.8625 13.3476 13.8399 12.3702L17.5 8.71012L21.1601 12.3702C22.1375 13.3475 22.6758 14.647 22.6758 16.0294Z" fill="#FF2625" fill-opacity="0.2"/>
</svg>
