<svg width="44" height="56" viewBox="0 0 44 56" fill="none" xmlns="http://www.w3.org/2000/svg">
<path d="M9.44273 37.0625H17.7317L10.3351 50.212C10.2588 50.3476 10.2187 50.5006 10.2187 50.6563V54.2813C10.2187 54.4003 10.2422 54.5181 10.2877 54.6281C10.3332 54.738 10.4 54.8379 10.4841 54.9221C10.5683 55.0062 10.6682 55.073 10.7782 55.1185C10.8881 55.1641 11.006 55.1875 11.125 55.1875H31.9687C32.0877 55.1875 32.2056 55.1641 32.3155 55.1185C32.4255 55.073 32.5254 55.0062 32.6095 54.9221C32.6937 54.8379 32.7605 54.738 32.806 54.6281C32.8515 54.5181 32.875 54.4003 32.875 54.2813V52.4688C32.875 52.309 32.8328 52.1521 32.7526 52.0139C32.6724 51.8757 32.5571 51.7612 32.4184 51.6819L26.852 48.5011L33.7414 36.1004C34.3005 35.0939 34.594 33.9615 34.5941 32.8101C34.5943 31.6587 34.301 30.5262 33.7421 29.5196C33.1831 28.513 32.3769 27.6653 31.3995 27.0567C30.4221 26.4481 29.3058 26.0985 28.1558 26.041L14.2846 25.3475L16.2204 22.4437L29.3687 18.9375H39.2187C39.4148 18.9375 39.6056 18.8739 39.7625 18.7562L43.3875 16.0375C43.5 15.9531 43.5914 15.8436 43.6543 15.7178C43.7172 15.592 43.75 15.4532 43.75 15.3125V13.5C43.75 13.381 43.7265 13.2631 43.681 13.1532C43.6355 13.0432 43.5687 12.9433 43.4846 12.8592C43.4004 12.775 43.3005 12.7083 43.1905 12.6627C43.0806 12.6172 42.9627 12.5937 42.8437 12.5938H20.185C20.7757 11.8105 21.0947 10.856 21.0937 9.875V4.4375C21.0937 3.7643 20.9063 3.10439 20.5523 2.53173C20.1984 1.95907 19.692 1.49628 19.0899 1.19521C18.4878 0.89414 17.8137 0.766693 17.1432 0.827148C16.4727 0.887603 15.8323 1.13357 15.2938 1.53749L12.3937 3.71251C12.2812 3.79692 12.1898 3.90638 12.1269 4.03221C12.064 4.15805 12.0312 4.29681 12.0312 4.4375V9.875C12.0302 10.856 12.3493 11.8105 12.9399 12.5938H11.2118C10.4793 12.5938 9.75773 12.7715 9.10889 13.1114C8.46005 13.4514 7.90327 13.9435 7.48626 14.5458L1.88447 22.6372C0.929598 24.0165 0.370352 25.6308 0.267325 27.3052C0.164298 28.9796 0.521417 30.6502 1.29999 32.1362C2.07857 33.6221 3.24892 34.8667 4.68425 35.7351C6.11958 36.6035 7.76517 37.0625 9.44273 37.0625ZM20.0635 35.6988C19.9836 35.5622 19.8694 35.4489 19.7322 35.3702C19.5949 35.2914 19.4394 35.25 19.2812 35.25H13.4257L16.3244 28.728L24.3262 30.0617C24.9535 30.1662 25.5435 30.4297 26.0401 30.827C26.5367 31.2242 26.9232 31.742 27.1629 32.3311C27.4026 32.9201 27.4874 33.5607 27.4093 34.1918C27.3312 34.8229 27.0927 35.4235 26.7166 35.9363L17.8377 48.0439L12.9464 49.2668L20.0711 36.6005C20.1487 36.4626 20.1888 36.3068 20.1874 36.1486C20.1861 35.9904 20.1434 35.8353 20.0635 35.6988ZM23.8125 53.375H12.0312V51.3638L18.2415 49.8113L23.8125 52.9947V53.375ZM31.0625 52.9947V53.375H25.625V52.4688C25.625 52.309 25.5828 52.1521 25.5026 52.0139C25.4224 51.8757 25.3071 51.7612 25.1684 51.6819L23.0817 50.4896L25.5033 49.818L31.0625 52.9947ZM31.9479 30.0557C32.4557 30.8135 32.7439 31.697 32.7808 32.6084C32.8177 33.5199 32.6018 34.4238 32.157 35.2201L25.0171 48.0719L20.8657 49.2233L19.7063 48.5608L28.1782 37.0081C28.7374 36.2457 29.0919 35.3528 29.208 34.4144C29.3242 33.4761 29.1981 32.5237 28.8417 31.6479C28.4854 30.7722 27.9107 30.0023 27.1724 29.4116C26.4341 28.821 25.5568 28.4293 24.6242 28.2739L19.5276 27.4244L28.0653 27.8513C28.8393 27.8916 29.5933 28.1118 30.2672 28.4945C30.9412 28.8771 31.5167 29.4117 31.9479 30.0557ZM41.9375 14.8594L38.9167 17.125H36.4999L37.95 16.0375C38.0625 15.9531 38.1539 15.8436 38.2168 15.7178C38.2797 15.592 38.3125 15.4532 38.3125 15.3125V14.4063H41.9375V14.8594ZM36.5 14.4063V14.8594L33.4792 17.125H29.25C29.1711 17.125 29.0926 17.1353 29.0164 17.1556L21.0937 19.2683V14.4063H36.5ZM16.3812 2.98747C16.6505 2.78552 16.9707 2.66254 17.3059 2.63232C17.6412 2.6021 17.9782 2.66583 18.2793 2.81636C18.5804 2.9669 18.8336 3.19829 19.0105 3.48462C19.1875 3.77095 19.2812 4.1009 19.2812 4.4375V5.34375H16.5625C16.4435 5.34375 16.3256 5.36719 16.2157 5.41273C16.1057 5.45828 16.0058 5.52504 15.9217 5.6092L14.3746 7.15625H13.8437V4.89063L16.3812 2.98747ZM13.8437 9.875V8.96875H14.75C14.869 8.96876 14.9868 8.94532 15.0968 8.89977C15.2067 8.85422 15.3066 8.78746 15.3908 8.7033L16.9379 7.15625H19.2812V9.875C19.2812 10.5961 18.9948 11.2876 18.4849 11.7974C17.9751 12.3073 17.2835 12.5938 16.5625 12.5938C15.8414 12.5938 15.1499 12.3073 14.64 11.7974C14.1302 11.2876 13.8437 10.5961 13.8437 9.875ZM8.9765 15.5775C9.22671 15.2161 9.56077 14.9208 9.95007 14.7168C10.3394 14.5129 10.7723 14.4063 11.2118 14.4063H19.2812V19.7517L15.4227 20.7806C15.2096 20.8375 15.0245 20.9701 14.9022 21.1536L11.6395 26.0476L3.30457 23.7744C3.32802 23.7393 3.35063 23.7037 3.37472 23.6689L8.9765 15.5775ZM2.4771 25.4275L11.7928 27.9681L11.7931 27.967C11.8224 27.9754 11.8522 27.9823 11.8822 27.9877L14.4777 28.4203L11.4423 35.25H9.44273C8.26376 35.2495 7.10204 34.9667 6.05476 34.4253C5.00748 33.8838 4.1051 33.0994 3.42311 32.1377C2.74112 31.176 2.29935 30.065 2.13477 28.8975C1.97018 27.7301 2.08757 26.5402 2.4771 25.4275H2.4771Z" fill="#FF2625" fill-opacity="0.2"/>
</svg>
