<svg width="18" height="15" viewBox="0 0 18 15" fill="none" xmlns="http://www.w3.org/2000/svg">
<path d="M16.1355 4.01386C16.8285 3.4941 17.4522 2.87038 17.9373 2.14271C17.3136 2.41992 16.5859 2.62783 15.8582 2.69713C16.6206 2.24667 17.175 1.55365 17.4522 0.68738C16.7592 1.10319 15.9622 1.41505 15.1652 1.5883C14.4722 0.860634 13.5366 0.444824 12.4971 0.444824C10.4874 0.444824 8.85878 2.07341 8.85878 4.08316C8.85878 4.36037 8.89343 4.63757 8.96273 4.91478C5.94811 4.74152 3.24535 3.28619 1.44351 1.10319C1.13165 1.62295 0.958395 2.24667 0.958395 2.93968C0.958395 4.18711 1.58211 5.29594 2.58698 5.9543C1.99792 5.91965 1.40886 5.78105 0.923744 5.50384V5.53849C0.923744 7.30569 2.17117 8.76102 3.83441 9.10753C3.55721 9.17683 3.2107 9.24613 2.89884 9.24613C2.65629 9.24613 2.44838 9.21148 2.20582 9.17683C2.65629 10.6322 4.00767 11.6717 5.6016 11.7063C4.35417 12.6766 2.79489 13.2656 1.097 13.2656C0.785141 13.2656 0.507935 13.231 0.230728 13.1963C1.82467 14.2358 3.73046 14.8249 5.80951 14.8249C12.4971 14.8249 16.1355 9.31543 16.1355 4.49897C16.1355 4.32572 16.1355 4.18711 16.1355 4.01386Z" fill="white"/>
</svg>
